<svg width="19" height="19" xmlns="http://www.w3.org/2000/svg">

 <g>
  <title>background</title>
  <rect fill="none" id="canvas_background" height="402" width="582" y="-1" x="-1"/>
 </g>
 <g>
  <title>Layer 1</title>
  <path fill="none" id="svg_1" stroke="#ffffff" d="m6.43978,7.12045l1.21428,0m3.64283,4.85717l1.2143,0m0,-5.46431l-6.07141,6.07141m2.18748,-11.18435l-1.37096,1.37095c-0.22496,0.22497 -0.53008,0.35135 -0.84823,0.35135l-2.15934,0c-0.66251,0 -1.19959,0.53708 -1.19959,1.19959l0,2.15934c0,0.31815 -0.12638,0.62327 -0.35135,0.84823l-1.37095,1.37096c-0.46847,0.46846 -0.46847,1.228 0,1.69643l1.37095,1.371c0.22497,0.225 0.35135,0.5301 0.35135,0.8482l0,2.1594c0,0.6625 0.53708,1.1995 1.19959,1.1995l2.15934,0c0.31815,0 0.62327,0.1264 0.84823,0.3514l1.37096,1.3709c0.46846,0.4685 1.228,0.4685 1.69643,0l1.371,-1.3709c0.225,-0.225 0.5301,-0.3514 0.8482,-0.3514l2.1594,0c0.6625,0 1.1995,-0.537 1.1995,-1.1995l0,-2.1594c0,-0.3181 0.1264,-0.6232 0.3514,-0.8482l1.3709,-1.371c0.4685,-0.46843 0.4685,-1.22797 0,-1.69643l-1.3709,-1.37096c-0.225,-0.22496 -0.3514,-0.53008 -0.3514,-0.84823l0,-2.15934c0,-0.66251 -0.537,-1.19959 -1.1995,-1.19959l-2.1594,0c-0.3181,0 -0.6232,-0.12638 -0.8482,-0.35135l-1.371,-1.37095c-0.46843,-0.46847 -1.22797,-0.46847 -1.69643,0z"/>
 </g>
</svg>