<svg id="SvgjsSvg1001" width="288" height="288" xmlns="http://www.w3.org/2000/svg" version="1.1" xmlns:xlink="http://www.w3.org/1999/xlink" xmlns:svgjs="http://svgjs.com/svgjs"><defs id="SvgjsDefs1002"></defs><g id="SvgjsG1008" transform="matrix(1,0,0,1,0,0)"><svg xmlns="http://www.w3.org/2000/svg" width="288" height="288" fill="none" viewBox="0 0 23 23"><path fill="#ffffff" d="M11.5 0V12.9375H0V23H23V0H11.5ZM11.5 21.5625H1.4375V14.375H11.5V21.5625ZM21.5625 21.5625H12.9375V7.1875H21.5625V21.5625ZM21.5625 5.75H12.9375V1.4375H21.5625V5.75Z" class="color000 svgShape"></path><path fill="#ffffff" d="M10.0625 4.73369L8.625 3.29619V0H7.1875V3.89131L8.625 5.32881V5.75H2.875V5.32881L4.3125 3.89131V0H2.875V3.29619L1.4375 4.73369V7.1875H10.0625V4.73369zM8.625 15.8125H4.3125V17.25H8.625V15.8125zM15.8125 2.875H14.375V4.3125H15.8125V2.875zM15.8125 10.0625H14.375V14.375H15.8125V10.0625zM2.875 8.625H1.4375V10.0625H2.875V8.625zM6.46875 8.625H5.03125V10.0625H6.46875V8.625zM10.0625 8.625H8.625V10.0625H10.0625V8.625z" class="color000 svgShape"></path></svg></g></svg>