<svg width="29" height="18" viewBox="0 0 29 18" fill="none" xmlns="http://www.w3.org/2000/svg">
<path d="M7.85418 14.9583H5.43751C5.10401 14.9583 4.83334 14.6876 4.83334 14.3541C4.83334 14.0206 5.10401 13.75 5.43751 13.75H7.85418C8.18768 13.75 8.45834 14.0206 8.45834 14.3541C8.45834 14.6876 8.18768 14.9583 7.85418 14.9583Z" fill="black"/>
<path d="M27.4896 14.9583H25.9792C25.6457 14.9583 25.375 14.6876 25.375 14.3541C25.375 14.0206 25.6457 13.75 25.9792 13.75H26.9881L27.8026 9.40965C27.7917 7.18873 25.8946 5.29165 23.5625 5.29165H19.5956L17.6731 13.75H21.1459C21.4794 13.75 21.75 14.0206 21.75 14.3541C21.75 14.6876 21.4794 14.9583 21.1459 14.9583H16.9167C16.733 14.9583 16.559 14.8749 16.4442 14.7311C16.3294 14.5886 16.2859 14.4001 16.327 14.2212L18.5238 4.55456C18.5866 4.27786 18.8307 4.08331 19.1134 4.08331H23.5625C26.5604 4.08331 29 6.52294 29 9.52081L28.0829 14.4653C28.0297 14.7517 27.7808 14.9583 27.4896 14.9583Z" fill="black"/>
<path d="M23.5625 17.375C21.8974 17.375 20.5417 16.0204 20.5417 14.3541C20.5417 12.6879 21.8974 11.3333 23.5625 11.3333C25.2276 11.3333 26.5833 12.6879 26.5833 14.3541C26.5833 16.0204 25.2276 17.375 23.5625 17.375ZM23.5625 12.5416C22.5632 12.5416 21.75 13.3549 21.75 14.3541C21.75 15.3534 22.5632 16.1666 23.5625 16.1666C24.5618 16.1666 25.375 15.3534 25.375 14.3541C25.375 13.3549 24.5618 12.5416 23.5625 12.5416Z" fill="black"/>
<path d="M10.2708 17.375C8.60576 17.375 7.25001 16.0204 7.25001 14.3541C7.25001 12.6879 8.60576 11.3333 10.2708 11.3333C11.9359 11.3333 13.2917 12.6879 13.2917 14.3541C13.2917 16.0204 11.9359 17.375 10.2708 17.375ZM10.2708 12.5416C9.27155 12.5416 8.45834 13.3549 8.45834 14.3541C8.45834 15.3534 9.27155 16.1666 10.2708 16.1666C11.2701 16.1666 12.0833 15.3534 12.0833 14.3541C12.0833 13.3549 11.2701 12.5416 10.2708 12.5416Z" fill="black"/>
<path d="M7.85417 4.08331H3.02084C2.68734 4.08331 2.41667 3.81265 2.41667 3.47915C2.41667 3.14565 2.68734 2.87498 3.02084 2.87498H7.85417C8.18767 2.87498 8.45834 3.14565 8.45834 3.47915C8.45834 3.81265 8.18767 4.08331 7.85417 4.08331Z" fill="black"/>
<path d="M7.85418 7.70831H1.81251C1.47901 7.70831 1.20834 7.43765 1.20834 7.10415C1.20834 6.77065 1.47901 6.49998 1.81251 6.49998H7.85418C8.18768 6.49998 8.45834 6.77065 8.45834 7.10415C8.45834 7.43765 8.18768 7.70831 7.85418 7.70831Z" fill="black"/>
<path d="M7.85417 11.3333H0.604167C0.270667 11.3333 0 11.0626 0 10.7291C0 10.3956 0.270667 10.125 0.604167 10.125H7.85417C8.18767 10.125 8.45833 10.3956 8.45833 10.7291C8.45833 11.0626 8.18767 11.3333 7.85417 11.3333Z" fill="black"/>
<path d="M16.9167 14.9583L12.6875 14.9583C12.354 14.9583 12.0833 14.6876 12.0833 14.3541C12.0833 14.0206 12.354 13.75 12.6875 13.75H16.4346L19.1799 1.66665H5.43751C5.10401 1.66665 4.83334 1.39598 4.83334 1.06248C4.83334 0.72898 5.10401 0.458313 5.43751 0.458313H19.9375C20.1212 0.458313 20.2952 0.541688 20.41 0.68548C20.5248 0.828063 20.5683 1.01656 20.5272 1.1954L17.5063 14.4871C17.4435 14.7638 17.1982 14.9583 16.9167 14.9583Z" fill="black"/>
</svg>
